<svg width="30" height="30" viewBox="0 0 30 30" fill="none" xmlns="http://www.w3.org/2000/svg">
<path d="M0 1C0 0.447716 0.447715 0 1 0H29C29.5523 0 30 0.447715 30 1V29C30 29.5523 29.5523 30 29 30H1C0.447716 30 0 29.5523 0 29V1Z" fill="url(#paint0_linear_25_99)"/>
<g clip-path="url(#clip0_25_99)">
<path d="M17.1438 11.1326C16.7357 11.1389 16.3364 11.2529 15.9863 11.4629C15.6362 11.6729 15.3478 11.9716 15.1501 12.3288C14.9524 11.9716 14.664 11.6729 14.3139 11.4629C13.9638 11.2529 13.5645 11.1389 13.1563 11.1326C12.5056 11.1608 11.8926 11.4455 11.4511 11.9244C11.0096 12.4032 10.7755 13.0373 10.8001 13.6882C10.8001 16.1441 14.7716 18.9807 14.9406 19.101L15.1501 19.2493L15.3596 19.101C15.5285 18.9814 19.5001 16.1441 19.5001 13.6882C19.5247 13.0373 19.2906 12.4032 18.8491 11.9244C18.4076 11.4455 17.7946 11.1608 17.1438 11.1326V11.1326Z" fill="white"/>
</g>
<defs>
<linearGradient id="paint0_linear_25_99" x1="0" y1="0" x2="30" y2="30" gradientUnits="userSpaceOnUse">
<stop stop-color="#4000F4"/>
<stop offset="0.224829" stop-color="#603AED"/>
<stop offset="0.469313" stop-color="#7C6EE6"/>
<stop offset="0.657091" stop-color="#979FE1"/>
<stop offset="0.77684" stop-color="#A2B3DE"/>
<stop offset="0.889332" stop-color="#ADC8DC"/>
<stop offset="1" stop-color="#C0ECD7"/>
</linearGradient>
<clipPath id="clip0_25_99">
<path d="M10.8 11.8C10.8 11.2478 11.2477 10.8 11.8 10.8H18.5C19.0523 10.8 19.5 11.2478 19.5 11.8V18.5C19.5 19.0523 19.0523 19.5 18.5 19.5H11.8C11.2477 19.5 10.8 19.0523 10.8 18.5V11.8Z" fill="white"/>
</clipPath>
</defs>
</svg>
