<svg width="492" height="343" viewBox="0 0 492 343" fill="none" xmlns="http://www.w3.org/2000/svg">
<path d="M294.527 0.775436C292.888 1.24364 289.494 2.88232 286.919 4.28691C284.344 5.57446 281.535 6.74495 280.715 6.74495C277.204 6.74495 267.138 20.0886 262.339 31.3253C260.466 35.422 259.998 39.1676 259.998 49.4679C259.998 61.6411 260.232 62.8116 263.158 67.2594C267.606 73.9312 273.692 78.3791 277.789 77.9109C282.354 77.4427 284.11 71.9414 283.29 60.4706C282.939 55.3204 283.173 49.585 283.993 46.6588C285.865 39.6358 292.771 32.4958 298.624 31.4424C306.115 30.2719 308.573 31.2083 314.777 37.5289C317.937 40.9233 320.98 43.4984 321.565 43.2643C322.97 42.9132 327.301 50.0532 327.301 52.7453C327.301 54.0329 328.354 56.3739 329.525 58.1296C330.812 59.8853 332.1 63.3968 332.568 65.8548C333.153 69.3663 333.036 70.0686 332.1 68.7811C330.461 66.4401 330.578 68.0788 332.568 76.3893C335.377 87.9772 334.675 103.311 331.281 107.29C331.046 107.524 327.886 107.993 324.375 108.227C311.616 109.163 289.26 120.517 278.491 131.402C272.756 137.255 272.288 138.425 276.384 137.372C279.428 136.553 280.13 137.723 278.023 139.83C277.087 140.766 277.555 141.118 279.662 141C281.301 140.883 282.354 140.415 282.003 139.83C281.769 139.362 282.354 139.011 283.29 139.011C284.344 139.011 285.163 138.542 285.163 137.84C285.163 137.255 284.344 137.021 283.29 137.489C281.652 138.074 281.418 137.723 282.12 134.914C283.173 130.817 286.217 128.242 295.698 123.326C304.827 118.644 311.499 117.005 310.446 119.698C309.509 122.156 310.329 121.921 313.84 118.644C318.171 114.664 329.876 112.089 344.273 111.972C355.042 111.972 356.797 112.206 359.021 114.313C360.426 115.601 362.065 116.42 362.533 116.069C363.118 115.718 363.235 116.42 362.884 117.591C362.299 119.463 362.416 119.463 363.82 117.825C364.64 116.771 365.927 116.069 366.512 116.303C367.215 116.42 370.141 116.888 373.067 117.357C375.993 117.708 379.622 119.112 381.027 120.4C383.368 122.624 383.485 122.624 383.485 120.517C383.485 116.186 378.803 113.845 360.075 108.929C356.329 107.993 355.978 107.524 356.563 104.481C357.734 97.6923 356.914 63.0457 355.51 55.6716C354.69 51.6919 353.052 46.1906 351.881 43.6155C350.828 41.0404 349.189 36.8266 348.37 34.2515C346.497 28.3991 342.4 21.8443 335.963 14.1191C331.866 9.32005 329.057 7.44727 321.917 4.40398C312.553 0.541351 300.145 -1.09735 294.527 0.775436ZM319.693 6.51086C327.067 10.1394 329.291 14.2361 325.662 17.2794C324.726 17.9817 324.141 19.2692 324.492 20.2056C324.843 21.025 324.609 22.0784 323.906 22.5466C323.204 22.8978 322.619 22.5466 322.619 21.8443C322.619 21.025 320.395 22.5466 317.586 25.2387C311.967 30.7401 311.499 30.8571 306.466 28.3991C304.008 27.1115 302.604 25.3558 302.018 22.8978C301.667 20.7909 300.145 17.6305 298.741 15.7578C296.751 12.9486 296.634 12.3633 298.039 11.4269C299.443 10.6076 299.443 10.0223 298.39 8.9689C297.219 7.7984 297.336 7.09612 298.741 5.45741C300.263 3.70168 301.901 3.46758 308.339 4.05283C312.67 4.40398 317.82 5.45741 319.693 6.51086ZM283.407 17.3964C285.865 25.0046 287.738 28.9843 288.792 28.9843C291.016 28.9843 289.611 32.1446 285.748 35.8902C283.524 37.9971 281.652 40.4551 281.652 41.3915C281.652 43.7325 279.428 43.3814 273.692 40.104C270.883 38.4653 268.074 37.5289 267.489 37.8801C265.499 39.0506 265.148 35.305 267.021 30.9742C269.362 25.2387 279.194 12.3633 280.832 12.9486C281.535 13.1827 282.705 15.1725 283.407 17.3964ZM298.039 20.7909C298.039 21.3761 297.57 21.9614 296.868 21.9614C296.283 21.9614 295.698 21.3761 295.698 20.7909C295.698 20.0886 296.283 19.6204 296.868 19.6204C297.57 19.6204 298.039 20.0886 298.039 20.7909ZM301.55 25.4728C301.55 26.1751 300.263 26.4092 298.39 25.941C293.708 24.7705 293.591 24.3023 297.804 24.3023C299.911 24.3023 301.55 24.8876 301.55 25.4728ZM327.301 27.6968C327.301 28.282 326.013 29.9207 324.375 31.4424C322.853 32.964 321.448 34.9538 321.448 35.7732C321.448 36.9437 320.98 36.9437 319.107 35.7732C317.82 34.9538 316.766 33.5492 316.766 32.7299C316.766 31.9106 316.298 31.5594 315.596 31.9106C314.191 32.7299 314.191 32.2617 315.128 29.6866C315.479 28.6332 316.415 27.8138 317.118 27.8138C317.82 27.8138 318.054 28.165 317.586 28.5161C317.235 28.8673 317.469 29.9207 318.288 30.623C319.342 31.7935 320.278 31.5594 322.619 29.3355C325.662 26.5263 327.301 25.941 327.301 27.6968ZM344.039 31.3253C346.965 36.1243 349.657 45.7224 348.487 46.8929C348.019 47.3611 343.22 47.9463 337.835 48.0634L328.12 48.2974L326.95 44.903C325.896 41.7427 326.13 41.1574 330.929 37.1778C333.739 34.7197 337.133 31.6765 338.421 30.2719C341.464 27.1115 341.581 27.1115 344.039 31.3253ZM267.606 41.7427C267.606 42.445 267.138 43.2643 266.435 43.6155C265.85 43.9666 265.265 43.4984 265.265 42.562C265.265 41.5086 265.85 40.6892 266.435 40.6892C267.138 40.6892 267.606 41.1574 267.606 41.7427ZM267.606 46.5417C267.606 47.127 268.425 47.7122 269.362 47.7122C271.234 47.7122 271.82 50.7555 270.064 51.4578C269.479 51.5748 268.776 52.7453 268.542 54.0329C268.308 55.6716 269.362 56.6079 272.756 57.7784L277.204 59.4171L276.502 56.4909C276.033 54.6181 276.267 53.5647 277.087 53.5647C277.906 53.5647 278.257 54.9693 277.906 57.0761C277.555 59.066 277.789 60.9388 278.374 61.2899C278.842 61.6411 279.311 64.5673 279.311 67.7276C279.311 74.3994 277.438 75.9211 272.639 73.346C266.786 70.1857 261.402 58.5978 264.211 55.0863C264.914 54.384 265.382 52.7453 265.265 51.5748C264.797 47.7122 265.265 45.3712 266.435 45.3712C267.138 45.3712 267.606 45.8394 267.606 46.5417ZM279.896 49.9361C281.066 51.926 278.608 52.3942 276.267 50.6384C274.161 48.9997 274.161 48.9997 276.619 48.8827C278.023 48.8827 279.428 49.3509 279.896 49.9361ZM353.169 68.4299C353.169 69.6004 353.52 72.9949 353.754 75.9211C354.222 79.9008 353.871 81.6565 352.467 82.827C350.594 84.3486 341.347 84.8168 339.24 83.5293C338.655 83.1781 337.835 80.369 337.484 77.3257C337.133 74.2824 336.431 70.7709 336.08 69.7175C335.26 67.6106 337.601 66.9083 347.55 66.5571C351.998 66.4401 353.052 66.7912 353.169 68.4299ZM333.973 73.6971C333.622 74.6335 333.27 74.2824 333.27 72.9949C333.153 71.7073 333.505 71.005 333.856 71.4732C334.207 71.8244 334.324 72.8778 333.973 73.6971ZM352.818 99.6821C353.052 100.853 352.935 103.077 352.467 104.715C351.764 107.524 351.53 107.641 344.039 107.056C339.825 106.705 336.197 106.237 336.08 106.003C335.846 105.769 336.314 103.662 337.016 101.204L338.421 96.7559L345.444 97.107C351.062 97.4582 352.584 98.0434 352.818 99.6821Z" fill="white" fill-opacity="0.8"/>
<path d="M391.678 117.005C391.561 120.049 386.177 124.848 383.602 124.145C382.314 123.794 379.856 123.911 378.217 124.263C375.642 124.965 375.408 125.316 376.462 127.423C377.164 128.71 378.334 129.296 379.037 128.945C379.856 128.476 379.973 128.593 379.505 129.53C378.334 131.403 381.144 132.105 385.24 130.934L388.752 129.881L385.825 128.71C383.016 127.54 383.016 127.54 388.518 125.082C392.966 123.209 394.019 122.156 394.019 119.815C394.019 116.888 391.678 114.196 391.678 117.005Z" fill="white" fill-opacity="0.8"/>
<path d="M368.385 120.4C366.863 121.687 365.81 122.975 366.161 123.209C366.512 123.56 367.449 123.092 368.268 122.039C369.087 121.102 370.492 120.283 371.311 120.283C372.248 120.283 372.95 119.698 372.95 119.112C372.95 117.357 371.545 117.708 368.385 120.4Z" fill="white" fill-opacity="0.8"/>
<path d="M316.181 120.985C314.191 122.389 314.074 122.858 315.479 123.794C317.352 124.847 322.97 122.624 324.492 120.165C324.96 119.229 324.492 119.229 322.736 120.165C321.097 121.102 320.278 121.102 320.278 120.283C320.278 118.644 318.99 118.878 316.181 120.985Z" fill="white" fill-opacity="0.8"/>
<path d="M329.056 121.453C328.588 122.155 327.886 122.389 327.301 122.038C325.545 120.868 324.843 123.794 326.364 125.784C328.237 128.359 332.217 129.295 331.28 126.954C330.929 126.018 331.514 124.965 332.451 124.613C333.504 124.145 334.324 123.326 334.324 122.624C334.324 121.921 333.855 121.687 333.153 122.038C332.568 122.389 331.983 122.155 331.983 121.57C331.983 119.931 329.993 119.931 329.056 121.453Z" fill="white" fill-opacity="0.8"/>
<path d="M374.121 122.858C374.121 123.326 374.589 123.794 375.174 123.794C375.876 123.794 376.579 123.326 376.93 122.858C377.281 122.272 376.813 121.804 375.876 121.804C374.94 121.804 374.121 122.272 374.121 122.858Z" fill="white" fill-opacity="0.8"/>
<path d="M335.963 124.38C334.792 125.316 334.324 126.135 335.026 126.135C335.729 126.135 337.016 125.316 337.835 124.38C339.708 122.156 338.889 122.156 335.963 124.38Z" fill="white" fill-opacity="0.8"/>
<path d="M393.785 124.614C391.21 125.199 391.093 126.838 393.317 127.657C395.541 128.476 403.383 126.369 403.383 124.965C403.383 123.794 397.531 123.56 393.785 124.614Z" fill="white" fill-opacity="0.8"/>
<path d="M340.41 127.54C338.421 129.061 336.782 131.051 337.016 131.988C337.484 134.563 345.678 134.095 347.785 131.285C350.126 128.242 349.891 126.603 347.55 128.593C340.879 133.86 335.611 134.68 341.113 129.53C344.39 126.369 345.561 124.965 344.507 124.965C344.39 124.965 342.517 126.135 340.41 127.54Z" fill="white" fill-opacity="0.8"/>
<path d="M372.365 127.306C372.014 127.891 372.248 128.476 372.833 128.476C373.536 128.476 374.121 127.891 374.121 127.306C374.121 126.603 373.887 126.135 373.653 126.135C373.302 126.135 372.716 126.603 372.365 127.306Z" fill="white" fill-opacity="0.8"/>
<path d="M403.968 131.168C407.948 133.626 416.141 142.873 420.121 149.194C424.335 156.334 425.856 157.036 424.92 151.535C423.164 142.522 410.523 129.53 403.734 129.764C401.861 129.764 401.861 129.881 403.968 131.168Z" fill="white" fill-opacity="0.8"/>
<path d="M350.828 133.275C348.721 134.563 347.199 135.85 347.55 136.201C348.37 137.138 355.393 133.275 355.393 131.988C355.393 130.466 355.393 130.466 350.828 133.275Z" fill="white" fill-opacity="0.8"/>
<path d="M392.263 131.636C388.284 132.573 387.815 133.977 391.678 133.392C393.551 133.158 395.19 132.456 395.19 131.871C395.19 131.285 395.073 130.934 394.955 130.934C394.721 131.051 393.551 131.285 392.263 131.636Z" fill="white" fill-opacity="0.8"/>
<path d="M266.435 134.797C266.435 135.733 267.489 137.606 268.776 139.128C270.766 141.586 271 141.703 271.117 139.83C271.117 137.138 269.01 133.158 267.606 133.158C266.903 133.158 266.435 133.86 266.435 134.797Z" fill="white" fill-opacity="0.8"/>
<path d="M356.446 136.201L352.466 139.245L355.978 138.425C359.255 137.723 361.128 136.084 361.245 133.977C361.245 132.69 360.894 132.924 356.446 136.201Z" fill="white" fill-opacity="0.8"/>
<path d="M295.346 136.436C292.42 139.596 292.888 141 297.219 141.703C302.252 142.405 303.774 141.352 300.262 139.479C298.741 138.659 296.985 138.308 296.4 138.659C295.814 139.128 295.697 138.777 296.166 138.074C296.634 137.255 297.804 136.67 298.741 136.67C299.677 136.67 300.145 136.084 299.794 135.499C298.741 133.743 297.453 134.095 295.346 136.436Z" fill="white" fill-opacity="0.8"/>
<path d="M258.242 137.021C258.242 137.84 260.349 140.649 262.924 143.107C267.723 147.789 269.361 146.736 265.733 141.352C262.221 136.201 258.242 133.86 258.242 137.021Z" fill="white" fill-opacity="0.8"/>
<path d="M359.841 139.479C355.627 141 355.627 142.99 359.724 141.937C363.469 141 363.937 140.649 363.469 139.362C363.235 138.776 361.596 138.893 359.841 139.479Z" fill="white" fill-opacity="0.8"/>
<path d="M304.944 142.054L302.135 145.214L305.413 143.107C307.168 142.054 308.573 140.649 308.573 140.064C308.573 138.425 307.988 138.776 304.944 142.054Z" fill="white" fill-opacity="0.8"/>
<path d="M310.212 143.107C308.456 144.629 307.168 146.268 307.519 146.502C307.871 146.853 309.626 145.565 311.499 143.693C315.596 139.479 314.893 139.128 310.212 143.107Z" fill="white" fill-opacity="0.8"/>
<path d="M394.604 141.352C393.082 142.054 392.848 142.405 394.019 142.405C394.955 142.405 396.594 141.937 397.53 141.352C399.637 139.947 397.764 139.947 394.604 141.352Z" fill="white" fill-opacity="0.8"/>
<path d="M316.883 145.097C315.362 146.97 314.543 148.843 314.894 149.311C315.362 149.662 316.181 149.428 316.649 148.609C317.118 147.789 318.405 147.438 319.342 147.789C321.448 148.609 323.555 146.151 321.8 144.98C321.097 144.629 320.395 143.693 320.161 142.99C319.927 142.288 318.405 143.224 316.883 145.097Z" fill="white" fill-opacity="0.8"/>
<path d="M312.085 145.448C310.797 146.97 310.914 147.087 312.553 146.502C313.606 146.151 314.426 145.331 314.426 144.746C314.426 143.224 313.723 143.458 312.085 145.448Z" fill="white" fill-opacity="0.8"/>
<path d="M357.733 144.98C357.733 145.565 358.787 146.033 359.957 146.033C361.245 146.033 362.532 145.565 362.884 144.98C363.235 144.395 362.181 143.927 360.66 143.927C359.021 143.927 357.733 144.395 357.733 144.98Z" fill="white" fill-opacity="0.8"/>
<path d="M396.36 144.863C396.36 145.448 397.179 145.682 398.116 145.331C399.052 144.863 399.871 144.395 399.871 144.161C399.871 143.927 399.052 143.692 398.116 143.692C397.179 143.692 396.36 144.161 396.36 144.863Z" fill="white" fill-opacity="0.8"/>
<path d="M365.576 147.204C366.278 149.779 364.171 150.481 363.235 148.023C362.767 146.97 362.533 146.97 362.533 148.023C362.415 150.247 364.288 150.716 368.034 149.428C370.492 148.609 371.428 147.672 370.96 146.502C370.492 145.214 369.907 145.097 368.736 146.151C367.566 147.087 367.097 147.087 367.097 146.151C367.097 145.448 366.629 144.863 366.044 144.863C365.459 144.863 365.225 145.917 365.576 147.204Z" fill="white" fill-opacity="0.8"/>
<path d="M325.428 147.321C322.853 150.716 322.853 151.418 325.545 151.301C328.706 151.067 331.983 148.726 331.983 146.736C331.983 146.034 330.929 146.736 329.759 148.258L327.535 151.184L327.067 148.375C326.833 146.151 326.482 145.917 325.428 147.321Z" fill="white" fill-opacity="0.8"/>
<path d="M333.973 149.077C332.802 150.598 332.334 151.886 332.919 151.886C334.441 151.886 337.016 148.725 336.431 147.321C336.314 146.736 335.143 147.555 333.973 149.077Z" fill="white" fill-opacity="0.8"/>
<path d="M403.149 148.023C402.095 148.257 400.925 149.194 400.691 150.013C400.223 151.301 400.691 151.418 403.5 150.364C405.373 149.662 406.895 148.608 406.895 148.14C406.895 147.204 406.426 147.087 403.149 148.023Z" fill="white" fill-opacity="0.8"/>
<path d="M259.295 150.716C256.018 152.589 248.995 164.293 247.005 170.848C245.951 174.243 244.43 179.51 243.493 182.553C242.557 185.596 241.855 189.693 241.855 191.683C241.855 200.579 236.704 203.622 223.595 202.452L214.348 201.632L214.465 195.546C214.699 189.108 217.391 180.797 220.435 177.403C221.956 175.647 221.956 175.296 219.732 174.243C214.933 171.55 208.027 173.774 194.333 182.553C189.417 185.713 178.999 197.184 180.17 198.238C180.404 198.589 182.628 196.482 185.086 193.556C188.363 189.576 192.109 187.001 200.068 183.021C212.124 177.169 216.104 175.764 216.104 177.403C216.104 177.988 215.05 180.797 213.88 183.724C212.592 186.533 211.422 191.683 211.188 195.194C210.837 202.1 209.9 203.154 203.814 203.388C201.941 203.388 199.015 204.207 197.376 205.144C194.567 206.782 194.567 206.782 197.025 206.899C199.483 206.899 199.483 207.133 197.961 210.06C197.025 211.933 194.801 216.614 193.162 220.711C190.119 227.734 190.119 228.202 191.992 230.075C193.864 231.948 194.098 231.948 195.152 229.958C195.854 228.788 197.844 226.095 199.6 224.106C201.473 221.999 202.643 219.658 202.409 218.838C202.058 218.136 202.409 217.434 202.994 217.434C204.75 217.434 205.686 208.889 204.048 207.836C202.175 206.665 203.111 206.08 208.379 205.261C213.763 204.441 220.786 205.495 220.786 207.133C220.786 207.836 219.966 208.07 219.03 207.602C217.859 207.133 217.274 207.719 217.274 209.357C217.274 211.698 213.295 218.37 210.954 220.009C208.847 221.413 209.081 227.617 211.305 229.607C213.412 231.48 213.763 231.246 218.913 223.989C224.882 215.678 226.638 210.294 224.297 207.485C223.127 205.963 223.244 205.729 225.351 205.729C226.755 205.729 228.16 206.548 228.511 207.485C229.564 210.06 231.086 209.709 235.651 205.729C237.758 203.739 240.567 202.217 241.738 202.217C242.908 202.217 245.132 201.164 246.771 199.993C249.229 198.004 254.613 196.95 259.412 197.535C260.348 197.652 258.007 199.291 254.145 201.164C239.514 208.304 230.501 215.795 227.223 223.754C225.702 227.383 225.702 228.085 227.34 229.607C229.213 231.597 232.491 232.182 232.491 230.543C232.491 230.075 234.598 227.383 237.173 224.574C239.748 221.648 241.855 218.487 241.855 217.317C241.855 216.029 242.674 215.444 243.961 215.561C245.366 215.795 246.068 214.976 246.537 212.284L247.122 208.655L258.827 208.07C270.298 207.485 270.415 207.485 265.85 206.08C263.275 205.261 259.646 204.441 257.656 204.207L254.145 203.856L257.071 202.569C258.71 201.866 261.636 200.813 263.509 200.345C266.552 199.525 266.669 199.408 264.445 199.057C263.041 198.823 261.285 197.77 260.582 196.833C259.646 195.78 256.837 195.194 252.857 195.194H246.537V191.098C246.537 188.757 247.941 182.553 249.697 177.286C252.974 167.103 255.549 162.538 254.379 169.092C253.911 171.316 254.145 172.955 254.73 172.955C255.432 172.955 255.901 172.253 255.901 171.316C255.901 168.858 258.124 167.805 259.997 169.444C261.285 170.497 261.987 170.029 263.626 166.986C265.382 163.474 265.733 163.357 267.02 165.113C268.308 166.869 268.659 166.869 269.946 165.347C271.468 163.591 274.043 164.059 272.873 166.049C272.404 166.634 272.639 167.103 273.224 167.103C273.926 167.103 274.628 166.283 275.097 165.347C275.448 164.41 276.501 163.942 277.438 164.293C278.374 164.645 280.364 163.708 281.768 162.304L284.343 159.729L281.768 158.675C280.247 158.207 278.608 157.973 278.14 158.324C277.555 158.675 276.852 158.441 276.501 157.856C276.033 157.27 273.809 156.919 271.351 157.153C269.01 157.27 266.084 157.036 265.03 156.451C263.626 155.749 262.923 155.749 262.923 156.568C262.923 157.153 262.338 157.739 261.636 157.739C260.582 157.739 260.817 155.866 262.572 150.95C263.275 149.311 261.87 149.194 259.295 150.716ZM261.753 163.591C261.753 164.176 261.168 164.762 260.465 164.762C259.88 164.762 259.646 164.176 259.997 163.591C260.348 162.889 260.934 162.421 261.285 162.421C261.519 162.421 261.753 162.889 261.753 163.591Z" fill="white" fill-opacity="0.8"/>
<path d="M370.141 152.939C369.673 153.525 370.492 153.759 371.78 153.408C374.472 152.705 374.823 151.886 372.482 151.886C371.546 151.886 370.492 152.354 370.141 152.939Z" fill="white" fill-opacity="0.8"/>
<path d="M330.227 154.227C329.876 154.812 330.11 155.397 330.695 155.397C331.397 155.397 331.983 154.812 331.983 154.227C331.983 153.525 331.749 153.056 331.515 153.056C331.163 153.056 330.578 153.525 330.227 154.227Z" fill="white" fill-opacity="0.8"/>
<path d="M335.611 155.866L331.983 158.558L335.728 159.377C340.645 160.314 343.805 157.738 341.113 154.929C339.474 153.408 338.889 153.408 335.611 155.866Z" fill="white" fill-opacity="0.8"/>
<path d="M429.485 158.441C425.037 161.835 424.569 163.591 427.963 163.591C430.304 163.591 434.284 158.675 433.582 156.685C433.465 155.983 431.475 156.802 429.485 158.441Z" fill="white" fill-opacity="0.8"/>
<path d="M342.4 159.728C340.878 161.484 340.995 161.484 343.454 160.197C345.092 159.377 346.029 159.26 346.029 160.08C346.029 160.665 345.56 161.25 344.858 161.25C344.273 161.25 343.688 162.186 343.688 163.357C343.688 164.527 342.985 166.166 342.283 166.986C341.23 168.039 342.049 167.922 344.507 166.634C348.721 164.527 349.657 162.655 348.135 159.728C346.848 157.153 344.39 157.153 342.4 159.728Z" fill="white" fill-opacity="0.8"/>
<path d="M371.195 158.909C371.546 159.494 372.95 160.079 374.238 160.079C375.525 160.079 376.228 159.494 375.877 158.909C375.525 158.207 374.121 157.738 372.833 157.738C371.546 157.738 370.843 158.207 371.195 158.909Z" fill="white" fill-opacity="0.8"/>
<path d="M285.515 161.25C282.822 163.357 281.886 165.932 283.876 165.932C284.929 165.932 289.143 160.079 288.441 159.494C288.207 159.26 286.919 160.079 285.515 161.25Z" fill="white" fill-opacity="0.8"/>
<path d="M291.132 161.952C287.387 166.283 288.792 166.634 292.771 162.42C294.644 160.431 295.58 158.909 294.995 158.909C294.293 158.909 292.537 160.313 291.132 161.952Z" fill="white" fill-opacity="0.8"/>
<path d="M403.383 160.08C403.383 160.782 404.202 161.25 405.139 161.25C406.075 161.25 406.894 161.016 406.894 160.782C406.894 160.548 406.075 160.08 405.139 159.611C404.202 159.26 403.383 159.494 403.383 160.08Z" fill="white" fill-opacity="0.8"/>
<path d="M462.493 162.42C462.024 163.708 460.152 165.581 458.279 166.517C456.406 167.571 454.884 169.092 454.884 169.912C454.884 172.37 451.724 174.594 451.022 172.721C450.671 171.901 450.32 172.604 450.32 174.359C450.202 176.818 449.266 178.105 446.457 179.393C442.828 181.031 442.828 181.148 445.872 180.563C449.851 179.744 449.968 181.382 446.106 183.958C443.18 185.83 442.945 185.83 440.839 183.255C439.551 181.734 438.615 179.978 438.498 179.276C438.498 177.637 434.05 173.54 433.23 174.359C432.645 174.945 435.922 182.319 437.21 183.489C438.38 184.426 440.604 191.8 442.126 199.525C443.414 205.963 443.414 207.016 441.658 209.006C439.2 211.815 439.2 212.166 442.009 216.029C443.414 217.902 444.35 221.062 444.467 223.871C444.584 236.513 442.945 253.719 440.721 263.083C438.146 274.32 438.146 280.523 440.721 274.203C441.541 272.213 443.531 265.892 445.169 260.157C446.808 254.304 448.681 248.92 449.266 248.218C451.256 245.76 452.543 247.749 452.543 253.134C452.543 263.083 457.577 277.012 463.78 284.503C465.302 286.376 466.589 288.248 466.589 288.834C466.589 289.302 470.803 295.974 475.953 303.582C485.551 317.745 486.839 321.49 483.679 325.704C482.157 327.811 481.455 327.811 471.857 326.406C461.205 324.768 454.065 323.012 446.106 319.969C439.551 317.511 434.635 317.628 431.123 320.437C425.973 324.534 408.884 329.684 398.116 330.386C395.189 330.62 388.635 329.099 387.113 327.928C386.879 327.694 388.4 326.172 390.39 324.417C395.189 320.437 397.179 316.34 400.574 304.167C403.149 294.569 403.149 293.984 401.276 290.004C399.637 286.61 398.584 285.79 395.189 285.556C392.965 285.322 389.922 284.035 388.517 282.747C386.176 280.523 385.474 280.406 383.016 281.811C381.377 282.63 378.802 282.981 377.281 282.513C375.291 282.045 373.418 282.63 371.545 284.152L368.619 286.376L360.543 282.396C356.095 280.289 348.487 276.661 343.571 274.437C335.377 270.691 334.558 269.989 331.632 264.136L328.588 257.816V262.146C328.471 265.892 329.291 267.297 335.026 272.798C340.176 277.831 343.102 279.704 349.306 281.694C360.309 285.205 365.927 288.717 369.79 294.452C373.769 300.422 374.94 300.187 372.365 293.984C369.438 286.844 372.95 281.811 377.749 286.61C380.09 288.951 382.314 288.717 382.314 285.907C382.314 284.269 385.123 282.747 386.294 283.801C386.645 284.269 386.996 285.556 386.996 286.727C386.996 288.6 387.698 288.717 391.444 288.131C396.36 287.312 397.998 288.483 399.286 293.633C399.871 295.857 399.286 297.612 396.945 300.304C395.189 302.411 394.37 304.05 395.072 304.05C397.062 304.05 396.594 310.137 394.37 313.414C388.049 323.012 378.334 328.513 362.533 331.44C357.265 332.493 352.349 333.664 351.764 334.015C348.135 336.239 312.552 333.546 293.708 329.567C288.674 328.513 287.387 328.63 285.865 330.152C283.875 332.025 275.448 333.898 273.575 332.844C270.181 330.737 252.389 325.119 249.229 325.119C243.61 325.119 244.547 326.992 250.633 327.811C257.422 328.747 271.117 333.195 271.117 334.483C271.117 337.994 218.094 339.984 188.714 337.526C168.231 335.887 167.528 335.77 159.101 331.44C150.322 326.875 143.884 321.49 145.172 319.501C145.523 318.915 149.035 318.096 153.014 317.745C160.857 317.043 162.261 316.457 160.154 314.35C159.218 313.414 158.75 313.414 158.75 314.233C158.75 314.936 157.462 315.17 155.823 314.819C154.185 314.585 152.897 313.531 152.897 312.712C152.897 311.307 154.185 311.19 159.101 311.658C166.826 312.361 169.167 311.19 165.773 308.147C163.783 306.391 161.676 305.923 156.058 306.04C148.332 306.274 142.714 304.05 144.353 301.358C144.821 300.539 145.289 288.131 145.289 273.617V247.281L150.79 237.332C153.834 231.831 160.271 222.701 165.07 216.965C169.986 211.113 173.966 206.08 173.966 205.495C173.966 203.388 170.338 204.675 167.763 207.719C166.358 209.357 161.91 214.507 157.93 219.072C153.834 223.637 148.449 231.714 145.64 237.332L140.607 247.281L140.841 263.668C140.958 272.681 141.543 282.864 142.129 286.259C142.948 291.058 142.831 293.633 141.309 297.612L139.554 302.763L125.976 302.528C117.782 302.411 111.696 302.763 110.291 303.582C108.653 304.635 110.642 304.752 119.304 304.284C132.999 303.582 139.202 304.518 138.617 307.327C138.266 308.966 136.159 309.434 127.146 310.254C109.706 311.658 107.833 313.297 124.571 312.595C138.266 312.009 138.851 312.126 138.851 314.35C138.851 316.34 137.33 317.043 129.839 318.798C122.113 320.671 121.294 321.022 124.688 321.373C126.912 321.607 131.126 321.139 134.052 320.437C138.851 319.266 139.554 319.266 140.607 321.139C141.192 322.31 143.767 325.353 146.108 328.045C155.941 338.931 175.839 342.559 226.17 342.676C250.282 342.676 254.145 342.442 262.455 340.101C267.489 338.814 274.511 337.409 277.906 337.058C281.183 336.824 283.758 336.239 283.407 335.77C283.173 335.185 284.11 334.132 285.631 333.312C287.972 332.142 291.132 332.376 305.061 334.951C316.532 337.058 325.662 337.994 334.675 337.994C348.604 337.994 366.98 335.536 373.418 332.844C376.813 331.44 378.334 331.44 384.187 332.844C399.988 336.59 410.523 334.834 428.08 325.704C432.411 323.48 436.859 321.607 438.029 321.607C439.317 321.607 443.062 323.246 446.574 325.119C449.968 326.992 454.767 328.865 457.108 329.333C459.449 329.684 464.014 330.737 467.175 331.557C473.612 333.195 481.455 332.493 487.073 329.684C494.096 326.289 492.457 319.501 480.518 303.348C472.442 292.345 466.823 283.566 460.971 273.032C459.098 269.521 457.225 259.454 457.225 252.431C457.225 244.706 456.406 243.184 452.309 243.184H448.798L449.383 234.991C450.202 225.51 448.681 208.772 445.989 196.599C444.233 188.639 444.233 187.937 446.106 185.83C447.159 184.66 448.798 183.958 449.734 184.309C450.671 184.66 451.373 184.192 451.373 183.021C451.373 180.797 453.012 180.563 454.65 182.67C455.47 183.606 455.587 185.713 454.884 188.757C454.299 191.332 453.831 193.907 453.831 194.609C453.831 196.599 457.108 190.044 457.225 187.82C457.225 184.777 458.981 185.362 460.737 188.991C462.259 192.034 462.376 192.151 462.727 189.81C463.195 187.586 466.004 185.947 469.281 185.83C470.92 185.83 470.101 188.639 467.526 191.449L464.834 194.258L467.76 193.79C469.75 193.556 470.686 192.619 470.803 191.098C470.92 189.81 471.388 187.937 471.857 186.884C472.442 185.362 471.74 184.777 468.462 184.426C466.121 184.192 463.663 184.543 463.078 185.128C461.556 186.65 458.981 184.192 460.152 182.319C460.737 181.382 462.844 181.031 466.121 181.499C469.047 181.734 471.622 181.617 471.974 181.031C472.325 180.446 473.612 179.978 474.9 179.978C476.07 179.978 477.124 179.393 477.124 178.807C477.124 178.105 476.422 177.637 475.485 177.637C474.198 177.637 473.963 176.583 474.432 173.54C475.017 169.795 474.783 169.443 472.325 169.443C470.218 169.443 469.984 169.795 471.154 170.497C471.974 171.082 472.325 172.136 471.974 172.838C470.92 174.477 466.589 174.594 466.589 172.955C466.589 172.253 467.175 171.784 467.877 171.784C468.813 171.784 468.696 171.199 467.76 170.029C466.589 168.624 466.589 167.805 467.526 166.868C469.867 164.527 469.047 163.24 465.887 164.059C463.312 164.761 462.961 164.527 463.663 162.42C464.014 161.133 464.131 160.079 463.78 160.079C463.546 160.079 462.844 161.133 462.493 162.42ZM464.951 168.39C465.302 169.092 465.185 170.146 464.482 170.848C463.78 171.55 463.546 172.838 463.897 173.657C464.248 174.594 464.014 175.296 463.429 175.296C462.844 175.296 462.259 173.423 462.142 171.199C461.79 167.219 463.312 165.815 464.951 168.39ZM457.811 178.807C456.055 182.319 453.714 182.67 453.714 179.51C453.714 177.988 455.47 174.125 457.811 170.614C459.918 167.454 459.918 174.711 457.811 178.807ZM470.101 176.466C470.101 177.052 469.516 177.637 468.813 177.637C468.228 177.637 467.994 177.052 468.345 176.466C468.696 175.764 469.281 175.296 469.633 175.296C469.867 175.296 470.101 175.764 470.101 176.466ZM463.897 178.339C463.546 178.69 462.493 178.807 461.673 178.456C460.737 178.105 461.088 177.754 462.376 177.754C463.663 177.637 464.365 177.988 463.897 178.339ZM147.045 308.147C147.045 309.083 146.225 309.903 145.289 309.903C144.353 309.903 143.533 309.083 143.533 308.147C143.533 307.21 144.353 306.391 145.289 306.391C146.225 306.391 147.045 307.21 147.045 308.147ZM151.024 313.063C151.961 313.999 145.757 316.808 144.47 316.106C143.884 315.872 143.533 314.819 143.533 313.882C143.533 312.244 149.386 311.541 151.024 313.063Z" fill="white" fill-opacity="0.8"/>
<path d="M372.131 162.069C373.184 162.304 374.823 162.304 375.642 162.069C376.345 161.718 375.525 161.484 373.535 161.484C371.663 161.484 370.96 161.718 372.131 162.069Z" fill="white" fill-opacity="0.8"/>
<path d="M298.507 166.166L296.283 168.858L298.975 166.634C301.667 164.293 304.242 164.879 301.901 167.22C300.028 169.092 301.316 171.785 303.657 170.965C305.764 170.263 308.573 167.22 308.573 165.815C308.573 165.347 307.636 164.996 306.583 164.996C305.413 164.996 303.657 164.762 302.603 164.293C301.433 163.825 300.028 164.528 298.507 166.166Z" fill="white" fill-opacity="0.8"/>
<path d="M371.78 165.932C370.492 166.751 371.194 167.102 374.472 167.102C377.164 167.102 378.686 166.634 378.217 165.932C377.281 164.41 374.121 164.41 371.78 165.932Z" fill="white" fill-opacity="0.8"/>
<path d="M429.953 165.581C428.198 167.337 429.368 168.975 432.294 168.858C434.401 168.858 435.689 168.156 435.923 166.751C436.274 165.347 435.572 164.762 433.465 164.762C431.943 164.762 430.304 165.113 429.953 165.581Z" fill="white" fill-opacity="0.8"/>
<path d="M348.135 166.751C346.848 167.102 346.146 168.273 346.263 169.912C346.497 172.487 346.731 172.604 350.008 171.199C351.998 170.38 353.754 168.975 353.988 168.273C354.339 167.337 353.988 167.102 353.169 167.571C352.466 168.039 351.881 167.805 351.881 167.22C351.881 165.932 351.53 165.815 348.135 166.751Z" fill="white" fill-opacity="0.8"/>
<path d="M310.329 169.443C309.978 170.029 309.978 170.614 310.329 170.614C310.68 170.614 309.861 171.784 308.573 173.189C307.169 174.828 306.7 175.998 307.403 176.232C309.158 176.817 313.372 172.955 312.436 171.433C312.085 170.731 312.319 170.614 313.138 171.082C314.192 171.784 314.192 172.37 313.021 173.891C311.734 175.413 311.851 175.647 313.489 174.945C316.884 173.774 316.767 175.647 313.021 181.148L309.627 186.416L316.181 179.744C319.81 175.998 322.619 172.37 322.385 171.667C322.034 170.731 321.215 170.965 319.927 172.37C318.757 173.423 317.469 174.125 317.118 173.774C316.767 173.423 317.469 172.136 318.522 170.965C320.044 169.56 320.161 168.858 319.108 168.507C318.288 168.156 317.118 168.741 316.533 169.56C315.713 170.848 315.245 170.848 314.777 169.677C314.075 168.039 311.382 167.805 310.329 169.443Z" fill="white" fill-opacity="0.8"/>
<path d="M375.408 169.911L372.716 171.433L375.291 172.135C377.047 172.604 377.749 173.423 377.281 174.593C376.695 175.881 377.281 176.466 378.802 176.466C380.324 176.466 380.909 175.881 380.441 174.71C379.973 173.774 379.154 172.955 378.451 172.955C377.632 172.955 377.632 172.487 378.568 171.55C381.729 168.39 379.856 167.453 375.408 169.911Z" fill="white" fill-opacity="0.8"/>
<path d="M349.657 173.306C348.37 174.945 349.072 176.466 351.062 176.466C351.764 176.466 351.881 176.115 351.53 175.647C351.062 175.296 351.296 174.242 351.998 173.306C352.818 172.369 352.935 171.784 352.115 171.784C351.53 171.784 350.36 172.487 349.657 173.306Z" fill="white" fill-opacity="0.8"/>
<path d="M323.907 174.945C323.907 175.764 322.97 176.466 322.034 176.466C321.097 176.466 320.278 177.403 320.278 178.573C320.278 179.744 319.576 181.383 318.874 182.202C317.586 183.489 317.937 183.723 320.512 183.255C322.268 182.904 324.024 183.255 324.375 183.958C324.726 184.894 325.194 184.777 325.662 183.723C326.014 182.904 327.067 181.5 328.003 180.68C330.227 178.339 330.11 177.637 327.418 177.637C326.131 177.637 324.843 176.701 324.609 175.53C324.258 174.477 324.024 174.242 323.907 174.945Z" fill="white" fill-opacity="0.8"/>
<path d="M348.838 179.509C349.189 180.563 349.54 181.85 349.54 182.436C349.54 184.426 354.105 183.489 355.393 181.265C356.68 178.69 356.212 178.105 351.413 177.871C348.838 177.637 348.253 178.105 348.838 179.509Z" fill="white" fill-opacity="0.8"/>
<path d="M331.398 179.978C331.047 180.563 331.749 181.148 333.036 181.148C334.441 181.148 335.494 180.563 335.494 179.978C335.494 179.275 334.792 178.807 333.856 178.807C332.919 178.807 331.749 179.275 331.398 179.978Z" fill="white" fill-opacity="0.8"/>
<path d="M403.266 181.265C402.095 181.968 402.446 182.319 404.905 182.319C408.299 182.319 409.001 181.734 406.543 180.797C405.607 180.446 404.202 180.68 403.266 181.265Z" fill="white" fill-opacity="0.8"/>
<path d="M327.301 186.416C326.481 188.054 326.13 189.693 326.715 190.161C327.184 190.746 327.886 190.395 328.12 189.576C328.471 188.874 329.642 188.171 330.695 188.171C333.738 188.171 334.441 187.001 332.568 185.128C330.227 182.787 329.056 183.138 327.301 186.416Z" fill="white" fill-opacity="0.8"/>
<path d="M378.803 184.66C378.803 185.245 379.388 185.831 380.09 185.831C380.676 185.831 380.91 185.245 380.558 184.66C380.207 183.958 379.622 183.49 379.271 183.49C379.037 183.49 378.803 183.958 378.803 184.66Z" fill="white" fill-opacity="0.8"/>
<path d="M351.998 186.884C350.828 187.703 350.828 188.054 351.881 188.756C352.583 189.225 353.754 189.108 354.456 188.405C355.978 186.884 353.988 185.713 351.998 186.884Z" fill="white" fill-opacity="0.8"/>
<path d="M403.149 187.82C403.968 188.171 405.021 188.054 405.373 187.703C405.841 187.352 405.139 187.001 403.851 187.118C402.563 187.118 402.212 187.469 403.149 187.82Z" fill="white" fill-opacity="0.8"/>
<path d="M449.032 189.342C449.032 189.927 449.617 190.512 450.32 190.512C450.905 190.512 451.139 189.927 450.788 189.342C450.437 188.639 449.852 188.171 449.5 188.171C449.266 188.171 449.032 188.639 449.032 189.342Z" fill="white" fill-opacity="0.8"/>
<path d="M331.164 191.683C327.418 193.204 327.769 193.789 332.217 193.555C334.207 193.438 336.08 192.736 336.431 191.917C336.899 190.278 334.909 190.161 331.164 191.683Z" fill="white" fill-opacity="0.8"/>
<path d="M175.371 196.833C175.605 198.706 176.425 200.461 177.244 200.813C179.234 201.398 179 198.472 176.893 195.662C175.137 193.556 175.137 193.556 175.371 196.833Z" fill="white" fill-opacity="0.8"/>
<path d="M334.324 196.131C334.324 196.599 335.026 197.769 335.845 198.589C337.016 199.876 337.016 200.11 335.845 199.408C334.909 198.823 334.324 199.291 334.324 200.579C334.324 201.866 335.026 202.334 336.665 201.866C338.069 201.515 338.772 201.749 338.303 202.451C337.835 203.154 338.186 203.505 338.889 203.271C340.41 202.685 340.527 202.1 339.357 197.769C338.772 195.428 334.324 193.907 334.324 196.131Z" fill="white" fill-opacity="0.8"/>
<path d="M354.222 198.94C352.584 199.642 351.881 200.344 352.584 200.578C354.339 201.281 359.607 199.291 358.202 198.471C357.617 198.12 355.861 198.354 354.222 198.94Z" fill="white" fill-opacity="0.8"/>
<path d="M171.625 200.462C171.625 201.398 172.445 202.217 173.381 202.217C174.318 202.217 175.137 201.749 175.137 201.164C175.137 200.579 174.318 199.876 173.381 199.408C172.328 199.057 171.625 199.408 171.625 200.462Z" fill="white" fill-opacity="0.8"/>
<path d="M293.357 204.675C284.11 205.729 275.799 208.538 278.609 209.592C279.662 210.06 281.886 209.826 283.525 209.24C287.621 207.602 306.349 207.719 313.021 209.357C320.746 211.347 321.566 212.167 320.044 216.614C318.639 220.711 304.242 242.365 302.487 242.951C301.901 243.185 300.146 242.599 298.624 241.546C296.868 240.375 295.581 240.141 295.112 240.844C294.644 241.546 295.932 242.951 297.922 244.121C303.657 247.281 313.021 267.999 313.957 279.353C314.777 288.6 315.479 291.175 317.001 291.175C317.82 291.175 318.054 288.015 317.703 280.875C317.001 270.106 315.011 263.902 307.754 251.027L304.008 244.238L308.69 240.024C313.84 235.342 320.278 225.978 324.141 217.434C325.545 214.508 326.833 211.815 326.95 211.464C328.354 209.006 309.51 202.92 302.721 203.505C301.784 203.622 297.571 204.09 293.357 204.675Z" fill="white" fill-opacity="0.8"/>
<path d="M354.807 204.558C355.159 205.143 356.095 205.729 356.68 205.729C357.383 205.729 357.5 205.143 357.148 204.558C356.797 203.856 355.861 203.388 355.276 203.388C354.573 203.388 354.456 203.856 354.807 204.558Z" fill="white" fill-opacity="0.8"/>
<path d="M334.441 208.07C332.92 209.357 332.334 210.411 333.037 210.411C334.675 210.411 341.347 207.134 341.347 206.314C341.347 204.91 337.016 206.08 334.441 208.07Z" fill="white" fill-opacity="0.8"/>
<path d="M272.053 208.889C272.873 209.24 273.926 209.123 274.277 208.772C274.746 208.421 274.043 208.07 272.756 208.187C271.468 208.187 271.117 208.538 272.053 208.889Z" fill="white" fill-opacity="0.8"/>
<path d="M355.51 211.113C355.51 212.401 355.861 212.752 356.212 211.815C356.563 210.996 356.446 209.943 356.095 209.592C355.744 209.123 355.393 209.826 355.51 211.113Z" fill="white" fill-opacity="0.8"/>
<path d="M311.265 216.731C308.573 218.253 304.242 219.892 301.667 220.36C295.346 221.413 294.293 223.286 300.028 223.286C306.232 223.286 312.553 221.296 315.011 218.721C318.405 214.858 316.532 213.805 311.265 216.731Z" fill="white" fill-opacity="0.8"/>
<path d="M436.157 217.317C436.157 218.604 436.742 220.009 437.327 220.36C438.03 220.828 438.498 219.775 438.498 218.136C438.498 216.497 438.03 215.093 437.327 215.093C436.742 215.093 436.157 216.146 436.157 217.317Z" fill="white" fill-opacity="0.8"/>
<path d="M433.231 220.594C433.231 222.232 433.816 223.871 434.518 224.105C435.337 224.339 435.572 223.169 435.22 220.945C434.635 216.614 433.113 216.263 433.231 220.594Z" fill="white" fill-opacity="0.8"/>
<path d="M394.838 220.594C394.487 221.179 394.955 222.818 395.892 224.456L397.413 227.383L397.53 224.222C397.53 221.062 395.892 218.955 394.838 220.594Z" fill="white" fill-opacity="0.8"/>
<path d="M429.368 224.456C429.368 226.095 429.602 226.68 429.953 225.861C430.188 225.159 430.188 223.754 429.953 222.935C429.602 222.232 429.368 222.818 429.368 224.456Z" fill="white" fill-opacity="0.8"/>
<path d="M425.037 225.276C425.271 226.447 425.505 228.436 425.505 229.607C425.622 231.363 425.973 231.597 426.91 230.66C427.729 229.841 427.963 227.968 427.495 226.329C426.676 222.935 424.452 222.116 425.037 225.276Z" fill="white" fill-opacity="0.8"/>
<path d="M372.482 229.139C373.535 234.523 375.291 236.396 374.706 231.479C374.355 229.256 373.652 227.032 372.95 226.329C372.131 225.51 372.014 226.329 372.482 229.139Z" fill="white" fill-opacity="0.8"/>
<path d="M421.877 229.724C422.111 231.362 422.93 232.65 423.515 232.65C424.218 232.65 424.335 231.831 423.983 230.777C423.632 229.724 423.281 228.436 423.281 227.851C423.281 227.266 422.813 226.798 422.228 226.798C421.76 226.798 421.525 228.085 421.877 229.724Z" fill="white" fill-opacity="0.8"/>
<path d="M381.729 229.139C382.08 229.724 382.665 230.309 383.016 230.309C383.251 230.309 383.485 229.724 383.485 229.139C383.485 228.436 382.899 227.968 382.197 227.968C381.612 227.968 381.378 228.436 381.729 229.139Z" fill="white" fill-opacity="0.8"/>
<path d="M378.451 231.479C378.802 232.767 379.27 233.82 379.505 233.82C379.739 233.82 379.973 232.767 379.973 231.479C379.973 230.192 379.505 229.138 378.919 229.138C378.334 229.138 378.1 230.192 378.451 231.479Z" fill="white" fill-opacity="0.8"/>
<path d="M399.871 232.299C399.871 233.587 399.52 236.162 399.169 238.034C398.818 240.141 399.169 242.248 400.339 243.77C403.032 247.281 404.436 244.238 403.149 237.566C402.095 231.714 399.871 228.085 399.871 232.299Z" fill="white" fill-opacity="0.8"/>
<path d="M169.87 233.469C170.221 234.406 170.455 235.342 170.455 235.576C170.455 235.81 172.093 235.459 173.966 234.874C178.765 233.118 178.414 231.479 173.381 231.713C170.221 231.831 169.401 232.299 169.87 233.469Z" fill="white" fill-opacity="0.8"/>
<path d="M411.342 232.767C410.991 233.703 411.576 234.991 412.63 235.693C414.152 236.864 414.152 237.332 412.864 238.971C412.045 240.024 411.811 240.843 412.396 240.843C413.449 240.843 417.429 236.63 417.429 235.576C417.429 235.225 416.844 234.991 416.141 234.991C415.322 234.991 414.152 234.055 413.332 233.001C412.162 231.479 411.811 231.362 411.342 232.767Z" fill="white" fill-opacity="0.8"/>
<path d="M418.6 233.703C418.6 236.63 419.302 236.864 420.121 234.406C420.589 233.469 420.355 232.416 419.77 232.065C419.068 231.596 418.6 232.416 418.6 233.703Z" fill="white" fill-opacity="0.8"/>
<path d="M405.139 236.395C406.543 243.067 407.831 243.653 410.055 238.971C410.874 237.215 411.225 236.161 410.757 236.63C410.406 236.981 409.353 236.278 408.416 234.991C405.841 231.362 404.202 232.065 405.139 236.395Z" fill="white" fill-opacity="0.8"/>
<path d="M231.087 234.64C228.277 235.342 228.394 238.034 231.321 238.853C232.608 239.205 233.662 238.97 233.662 238.502C233.662 237.917 234.013 236.747 234.364 235.693C235.066 233.82 234.715 233.703 231.087 234.64Z" fill="white" fill-opacity="0.8"/>
<path d="M474.432 235.693C472.91 237.332 473.612 240.141 478.177 249.505C480.752 254.889 484.615 260.742 486.956 262.849C489.297 264.956 491.17 266.36 491.17 266.009C491.17 264.839 487.424 257.816 486.488 257.23C486.02 256.879 483.796 251.963 481.455 246.111C477.358 235.927 476.07 234.055 474.432 235.693Z" fill="white" fill-opacity="0.8"/>
<path d="M394.487 241.194C394.136 242.248 394.136 243.535 394.487 244.238C394.838 244.823 394.136 245.057 392.849 244.706C391.444 244.355 390.508 244.706 390.508 245.525C390.508 246.345 389.571 246.579 388.284 246.11C385.357 245.174 384.304 248.1 386.06 252.314L387.464 255.474L387.932 252.548C388.518 248.451 390.273 246.813 391.678 249.037C392.614 250.558 392.849 250.441 392.849 248.686C392.849 247.515 393.785 246.696 395.072 246.696C396.828 246.696 397.296 245.993 396.945 243.769C396.594 239.907 395.424 238.853 394.487 241.194Z" fill="white" fill-opacity="0.8"/>
<path d="M467.175 245.643C465.536 248.101 470.101 265.541 473.379 269.17C477.124 273.617 477.943 271.159 474.783 264.956C472.91 261.444 471.155 255.358 470.686 251.495C469.867 244.706 468.814 242.834 467.175 245.643Z" fill="white" fill-opacity="0.8"/>
<path d="M10.6826 247.749C7.05411 249.271 4.71312 252.548 1.90394 259.454C-2.19279 269.989 0.382297 281.928 9.04394 291.76C12.6725 295.74 15.9499 297.144 15.9499 294.569C15.9499 293.75 13.3748 290.707 10.2144 287.663C4.24492 281.694 3.07443 278.533 3.07443 267.414C3.07443 260.274 5.41542 254.772 10.3315 250.325C14.4282 246.579 14.4282 246.228 10.6826 247.749Z" fill="white" fill-opacity="0.8"/>
<path d="M379.973 252.197C380.09 254.304 382.08 256.294 382.782 255.007C383.251 254.304 383.251 253.134 382.899 252.548C382.08 251.144 379.973 251.027 379.973 252.197Z" fill="white" fill-opacity="0.8"/>
<path d="M370.609 257.113C370.609 258.401 371.195 259.806 371.78 260.157C372.482 260.508 372.95 259.806 372.95 258.518C372.95 257.23 372.482 255.826 371.78 255.475C371.195 255.124 370.609 255.826 370.609 257.113Z" fill="white" fill-opacity="0.8"/>
<path d="M375.291 257.933C375.291 258.869 375.876 259.337 376.462 258.986C377.164 258.518 377.398 257.699 377.047 257.113C375.993 255.475 375.291 255.826 375.291 257.933Z" fill="white" fill-opacity="0.8"/>
<path d="M355.978 261.795C355.627 262.381 355.861 263.2 356.563 263.668C357.149 264.019 357.734 263.785 357.734 263.083C357.734 262.381 358.319 262.146 359.139 262.615C361.597 264.136 366.981 263.902 367.566 262.263C368.034 261.093 366.747 260.742 362.416 260.742C359.256 260.742 356.446 261.21 355.978 261.795Z" fill="white" fill-opacity="0.8"/>
<path d="M67.8024 263.902C66.1637 264.253 64.7591 265.892 63.8227 268.584L62.5352 272.681L56.4486 272.096C49.4256 271.51 45.2119 272.798 44.3925 275.958C43.6902 278.767 44.2755 278.65 38.1889 276.544C35.4968 275.607 32.8046 275.139 32.2194 275.49C30.1125 276.778 32.3364 278.065 37.8377 278.885C41.3492 279.353 45.563 281.226 49.0745 283.801C52.2348 286.025 55.044 287.663 55.2781 287.429C55.5122 287.078 55.044 285.205 54.2247 283.098C52.9371 279.587 53.0542 279.119 55.6292 277.012C59.0237 274.32 61.3647 274.203 64.1738 276.778C66.1637 278.533 66.2807 278.416 66.2807 273.851C66.2807 267.765 70.3775 264.37 75.4106 266.126C78.2198 267.18 78.5709 267.882 78.5709 272.681C78.5709 277.129 79.1562 278.533 81.8483 280.64C85.5939 283.684 85.945 285.322 82.5506 285.322C79.1562 285.322 80.4437 288.248 83.9552 288.483C85.4768 288.483 87.4667 288.6 88.286 288.717C88.9883 288.834 89.6906 289.536 89.6906 290.355C89.6906 292.228 84.7745 297.027 82.9017 297.027C80.6778 297.027 81.263 298.666 85.4768 304.167C89.5735 309.668 91.5634 315.17 89.8076 316.34C89.1053 316.691 88.0519 316.34 87.2326 315.521C86.2962 314.35 82.0824 314.116 71.665 314.35L57.502 314.819L54.3417 310.956C50.0109 305.806 50.245 308.03 54.6928 314.585C58.4384 320.086 58.6725 323.48 55.3951 323.246C54.3417 323.129 52.3519 323.012 51.1814 322.895C47.7869 322.661 42.1686 317.511 36.9014 309.668C34.2092 305.806 31.8682 302.997 31.5171 303.231C30.8148 304.05 35.3797 313.063 38.7741 317.628C40.4128 319.735 41.1151 321.842 40.6469 322.661C39.2423 324.885 33.8581 323.012 30.8148 319.267C29.2932 317.511 26.9522 315.638 25.6646 315.287C24.26 314.819 22.8554 313.765 22.5043 312.829C22.1531 311.892 21.3338 311.073 20.5145 311.073C18.0564 311.073 28.5909 322.193 33.8581 325.002C39.5935 328.045 42.8709 327.694 42.8709 323.948V321.608L47.5528 323.948C55.5122 328.045 62.8863 326.289 61.1306 320.671C60.5453 318.798 61.1306 318.33 64.7591 317.628C72.9525 316.34 83.3699 316.808 87.2326 318.798C90.744 320.554 91.2122 320.554 92.968 318.915C94.4896 317.277 94.6067 316.34 93.3191 312.361C92.6168 309.786 90.627 306.157 89.1053 304.284C85.5939 300.07 85.5939 299.953 88.5201 296.208C91.4463 292.462 91.5634 288.366 88.8712 285.556C82.6676 279.002 82.0824 277.831 82.5506 271.745C82.6676 268.35 82.4335 265.424 81.8483 265.073C80.3266 264.136 70.6116 263.317 67.8024 263.902ZM52.703 274.554C52.9371 275.022 52.2348 276.778 51.0643 278.299C49.3086 280.64 48.4892 280.874 47.4358 279.821C46.2653 278.65 46.3823 277.831 48.1381 275.958C50.362 273.5 51.7666 273.032 52.703 274.554Z" fill="white" fill-opacity="0.8"/>
<path d="M161.442 268.35C157.228 270.106 155.589 272.798 153.365 280.991C151.493 288.014 152.312 292.813 156.058 297.846C159.218 302.177 163.198 302.88 169.752 300.07C175.371 297.729 177.478 294.101 177.478 286.727C177.478 279.587 175.488 274.085 171.508 270.574C167.528 267.062 165.539 266.594 161.442 268.35ZM166.241 269.872C166.592 270.457 165.422 272.915 163.666 275.373C160.974 279.119 160.505 280.991 160.505 287.546C160.505 291.76 160.974 296.208 161.559 297.261C162.729 299.719 161.208 299.953 158.281 297.846C155.472 295.74 154.419 285.907 156.409 279.938C159.101 271.744 164.134 266.594 166.241 269.872Z" fill="white" fill-opacity="0.8"/>
<path d="M215.852 272.653C208.478 280.027 206.722 292.551 212.223 298.521C214.447 300.979 221.236 303.32 225.918 303.32C229.547 303.32 236.687 300.16 239.964 297.116C241.486 295.712 243.827 292.551 244.997 290.093L247.338 285.762L240.549 278.974C227.674 266.332 223.343 265.162 215.852 272.653ZM236.921 278.388L244.646 285.177L241.837 290.679C240.198 293.956 237.623 296.999 235.516 298.053C230.015 300.862 229.312 300.394 230.366 294.775C231.771 287.518 231.068 281.081 228.493 276.633C225.684 272.068 225.684 271.717 227.674 271.717C228.61 271.717 232.707 274.76 236.921 278.388Z" fill="white" fill-opacity="0.8"/>
<path d="M292.772 271.159C292.421 271.744 292.655 272.564 293.357 273.032C293.942 273.383 294.527 272.915 294.527 271.978C294.527 269.872 293.825 269.52 292.772 271.159Z" fill="white" fill-opacity="0.8"/>
<path d="M22.2704 274.319C22.9727 277.012 22.7386 277.246 20.5147 276.543C18.2907 275.841 18.0566 276.075 18.876 277.831C19.3442 279.118 20.0465 280.991 20.2806 282.045C21.217 285.205 22.9727 284.503 22.9727 281.108C22.9727 278.533 23.2068 278.182 24.7285 279.47C26.133 280.64 26.4842 280.64 26.4842 279.118C26.4842 278.065 26.016 276.895 25.3137 276.543C24.7285 276.192 24.1432 274.788 24.1432 273.5C24.1432 272.33 23.558 271.276 22.8557 271.276C22.0363 271.276 21.8022 272.447 22.2704 274.319Z" fill="white" fill-opacity="0.8"/>
<path d="M289.494 273.266C289.143 273.851 289.26 275.022 289.728 275.841C290.547 277.012 290.898 277.012 291.601 275.958C292.069 275.256 291.952 274.086 291.249 273.383C290.664 272.798 289.845 272.681 289.494 273.266Z" fill="white" fill-opacity="0.8"/>
<path d="M27.6548 275.607C27.6548 277.129 28.24 278.299 28.8253 278.299C30.3469 278.299 30.3469 277.012 28.8253 274.788C27.8889 273.383 27.6548 273.5 27.6548 275.607Z" fill="white" fill-opacity="0.8"/>
<path d="M283.29 275.724C280.247 275.958 279.662 276.544 280.13 278.416C280.832 280.874 281.067 280.874 284.812 279.938C287.27 279.236 289.377 276.309 287.738 275.724C287.27 275.49 285.28 275.49 283.29 275.724Z" fill="white" fill-opacity="0.8"/>
<path d="M15.8328 281.225C17.8227 285.205 19.4614 287.195 19.4614 285.79C19.4614 284.971 18.4079 283.215 17.0033 281.693C15.1305 279.47 14.8964 279.353 15.8328 281.225Z" fill="white" fill-opacity="0.8"/>
<path d="M293.356 287.078C293.356 288.014 293.825 288.834 294.527 288.834C295.112 288.834 295.346 288.014 294.995 287.078C294.527 286.141 294.059 285.322 293.825 285.322C293.591 285.322 293.356 286.141 293.356 287.078Z" fill="white" fill-opacity="0.8"/>
<path d="M13.6089 287.546C13.6089 288.131 14.4282 288.951 15.4817 289.302C17.1204 289.887 17.2374 289.77 15.9499 288.248C14.3112 286.259 13.6089 286.024 13.6089 287.546Z" fill="white" fill-opacity="0.8"/>
<path d="M286.333 289.068C286.333 290.004 284.695 290.706 282.588 290.706C276.501 290.941 273.458 291.643 273.458 292.579C273.458 294.218 276.969 295.037 278.491 293.75C280.13 292.345 280.247 292.345 285.163 292.345C287.855 292.345 288.674 291.877 288.674 290.004C288.674 288.717 288.206 287.663 287.504 287.663C286.919 287.663 286.333 288.365 286.333 289.068Z" fill="white" fill-opacity="0.8"/>
<path d="M11.2681 297.964C11.2681 301.124 13.9602 306.391 15.7159 306.391C16.4182 306.391 17.1205 306.859 17.1205 307.562C17.1205 308.147 17.7058 308.732 18.4081 308.732C19.2274 308.732 19.1104 307.796 18.0569 306.04C17.1205 304.636 15.95 302.06 15.5989 300.422C14.6625 296.676 11.2681 294.803 11.2681 297.964Z" fill="white" fill-opacity="0.8"/>
<path d="M183.681 298.9C183.33 299.953 183.564 301.826 184.267 302.996C186.256 306.157 186.022 312.126 183.915 312.946C182.979 313.414 182.16 314.233 182.16 314.818C182.16 315.521 182.979 315.638 184.032 315.287C185.086 314.818 186.725 315.17 187.544 315.872C189.534 317.511 189.651 316.457 187.778 313.414C186.373 311.19 186.725 308.966 190.002 299.017C190.47 297.495 190.002 297.027 187.544 297.027C185.788 297.027 184.15 297.846 183.681 298.9Z" fill="white" fill-opacity="0.8"/>
<path d="M288.089 305.22C287.621 305.923 286.451 306.274 285.514 306.157C284.461 305.923 283.407 306.508 283.056 307.444C282.705 308.615 283.056 308.849 284.461 308.381C285.631 307.913 287.27 307.561 288.089 307.561C288.909 307.561 289.845 306.742 290.313 305.806C291.016 303.816 289.26 303.348 288.089 305.22Z" fill="white" fill-opacity="0.8"/>
<path d="M226.287 310.136C223.01 313.297 222.893 315.755 226.053 315.755C226.873 315.755 227.809 316.34 228.043 317.159C228.277 317.862 229.214 318.096 229.916 317.628C230.735 317.159 231.086 315.755 230.735 314.467C230.033 312.477 230.384 312.243 233.31 312.946C237.641 313.999 237.641 313.999 235.3 316.34C233.31 318.213 233.544 318.33 239.631 317.979C243.377 317.745 247.356 316.691 249.229 315.287C252.155 313.414 254.028 313.18 263.158 313.648C269.01 313.999 274.043 314.818 274.512 315.287C274.863 315.872 276.033 316.457 276.97 316.457C277.906 316.574 280.715 317.042 283.173 317.511C286.919 318.213 287.387 318.096 286.802 316.457C286.334 315.287 285.397 314.701 284.578 315.053C283.759 315.287 278.96 314.584 273.809 313.414C263.041 310.722 247.707 309.785 248.527 311.775C248.995 313.063 246.654 314.584 243.142 315.287C240.216 315.872 238.343 314.35 238.343 311.19C238.461 308.381 238.578 308.264 239.982 310.254C241.855 312.595 243.494 311.307 241.855 308.849C241.27 307.913 238.578 307.093 235.183 306.976C230.384 306.859 229.097 307.327 226.287 310.136Z" fill="white" fill-opacity="0.8"/>
<path d="M290.079 314.35C289.26 314.585 288.675 315.521 288.675 316.457C288.675 317.745 289.143 317.862 290.548 317.16C291.601 316.574 293.591 316.34 294.878 316.691C296.4 317.043 296.985 316.809 296.634 315.755C296.166 314.233 292.654 313.414 290.079 314.35Z" fill="white" fill-opacity="0.8"/>
<path d="M164.603 315.755C164.603 316.34 165.071 316.925 165.656 316.925C166.358 316.925 167.178 316.34 167.529 315.755C167.88 315.053 167.412 314.584 166.475 314.584C165.422 314.584 164.603 315.053 164.603 315.755Z" fill="white" fill-opacity="0.8"/>
<path d="M248.293 319.267C248.644 319.852 250.751 320.437 252.741 320.437C257.657 320.437 270.649 323.246 275.799 325.47C278.023 326.407 281.184 327.577 282.822 328.045C285.632 328.865 285.632 328.748 283.408 327.109C276.853 322.427 245.952 315.521 248.293 319.267Z" fill="white" fill-opacity="0.8"/>
</svg>
