<svg width="32" height="32" viewBox="0 0 32 32" fill="none" xmlns="http://www.w3.org/2000/svg">
<path d="M28.9362 3.67973C29.0607 3.55953 29.16 3.41575 29.2283 3.25677C29.2965 3.0978 29.3325 2.92682 29.334 2.7538C29.3355 2.58079 29.3025 2.4092 29.237 2.24907C29.1715 2.08893 29.0747 1.94345 28.9524 1.8211C28.8301 1.69876 28.6846 1.602 28.5244 1.53648C28.3643 1.47097 28.1927 1.438 28.0197 1.4395C27.8467 1.44101 27.6757 1.47695 27.5167 1.54524C27.3578 1.61353 27.214 1.7128 27.0938 1.83725L22.3468 6.58417C20.3545 5.68509 18.1381 5.21209 15.6363 5.21209C11.2985 5.21209 7.8129 6.63369 4.87588 9.23713C3.70837 10.2717 1.87893 12.3032 0.470356 15.0395L0.162842 15.6363L0.470356 16.2331C1.88023 18.9694 3.70837 21.0008 4.87588 22.0354C5.23813 22.356 5.60818 22.6596 5.98736 22.9437L2.33629 26.5947C2.21184 26.7149 2.11257 26.8587 2.04428 27.0177C1.97599 27.1767 1.94004 27.3476 1.93854 27.5207C1.93704 27.6937 1.97 27.8653 2.03552 28.0254C2.10104 28.1855 2.19779 28.331 2.32014 28.4534C2.44248 28.5757 2.58797 28.6725 2.7481 28.738C2.90824 28.8035 3.07982 28.8365 3.25284 28.835C3.42585 28.8335 3.59684 28.7975 3.75581 28.7292C3.91478 28.6609 4.05857 28.5617 4.17877 28.4372L8.25202 24.364L8.25593 24.3666L10.2144 22.4081L10.2092 22.4068L12.4634 20.1526L12.4686 20.1539L14.5105 18.112H14.5052L20.6034 12.0126L20.6047 12.0178L22.683 9.93946L22.6804 9.93555L22.8238 9.79352L22.8264 9.79613L24.7079 7.91456L24.704 7.91196L28.9362 3.67973ZM19.3942 9.53813L12.1363 16.796C11.6379 16.3041 11.2426 15.7177 10.9739 15.071C10.7052 14.4243 10.5683 13.7305 10.5714 13.0302C10.5714 10.1245 12.866 7.81814 15.635 7.81814C17.1165 7.81814 18.4625 8.47747 19.3929 9.53683L19.3942 9.53813ZM10.2939 18.6385L7.8533 21.079C7.42001 20.7704 7.00373 20.4385 6.6063 20.0848C5.72806 19.3082 4.29995 17.7485 3.11029 15.6363C4.29995 13.5254 5.72937 11.9644 6.6063 11.1878C7.28257 10.5884 7.98881 10.0633 8.73545 9.61892C8.22755 10.6844 7.96443 11.8499 7.96536 13.0302C7.96536 15.2206 8.85532 17.213 10.2939 18.6385ZM25.3673 11.8627L27.211 10.0189C28.6433 11.5111 29.8528 13.202 30.8022 15.0395L31.1097 15.6363L30.8022 16.2331C29.3923 18.9694 27.5642 21.0008 26.3967 22.0354C23.4596 24.6376 19.9727 26.0605 15.6363 26.0605C14.2853 26.0672 12.9383 25.915 11.6229 25.607L13.872 23.358C14.4388 23.4232 15.0265 23.4544 15.6363 23.4544C19.3277 23.4544 22.1996 22.2726 24.6675 20.0848C25.5458 19.3082 26.9739 17.7485 28.1636 15.6363C27.3919 14.2671 26.4525 12.9995 25.3673 11.8627Z" fill="#B3B3B3"/>
<path d="M23.2499 13.9802C22.8225 17.5701 20.0001 20.438 16.422 20.8081L23.2499 13.9802Z" fill="#B3B3B3"/>
</svg>
