<svg width="24" height="24" viewBox="0 0 24 24" fill="none" xmlns="http://www.w3.org/2000/svg">
<path d="M13.5 2.4C13 2.1 12.5 2 12 2C11.5 2 11 2.1 10.5 2.4L3 6.7C2.7 6.9 2.4 7.1 2.3 7.4C2 7.7 2 8.1 2 8.4V21.8C2 22.1 2.1 22.3 2.3 22.5C2.5 22.7 2.7 22.8 3 22.8H9C9.3 22.8 9.5 22.7 9.7 22.5C9.9 22.3 10 22.1 10 21.8V15.8H14V21.8C14 22.1 14.1 22.3 14.3 22.5C14.5 22.7 14.7 22.8 15 22.8H21C21.3 22.8 21.5 22.7 21.7 22.5C21.9 22.3 22 22.1 22 21.8V8.4C22 8 22 7.7 21.7 7.4C21.5 7.1 21.3 6.8 21 6.7L13.5 2.4Z" fill="#CCCCCC"/>
</svg>
