<svg width="81" height="80" viewBox="0 0 81 80" fill="none" xmlns="http://www.w3.org/2000/svg">
<path d="M41.7567 0.0333279C19.6834 -0.843339 1.08004 16.34 0.203372 38.4133C-0.673295 60.49 16.51 79.0933 38.5867 79.9667C60.66 80.8433 79.2634 63.66 80.14 41.5867C81.0167 19.5133 63.83 0.906661 41.7567 0.0333279ZM58.6434 58.63C58.3296 59.1799 57.8104 59.5828 57.1998 59.7503C56.5892 59.9178 55.9372 59.8362 55.3867 59.5233C50.0985 56.5143 44.2864 54.5381 38.26 53.7C32.2367 52.8446 26.1056 53.1421 20.1934 54.5767C19.59 54.6937 18.9647 54.5739 18.4474 54.242C17.9301 53.9101 17.5606 53.3916 17.4155 52.7944C17.2705 52.1971 17.3612 51.5669 17.6686 51.0347C17.9761 50.5026 18.4768 50.1093 19.0667 49.9367C25.5667 48.3567 32.25 48.0333 38.9267 48.97C45.6034 49.91 51.9367 52.0633 57.75 55.37C58.0228 55.5254 58.2622 55.733 58.4547 55.9809C58.6472 56.2288 58.789 56.5122 58.8719 56.815C58.9549 57.1177 58.9774 57.4338 58.9382 57.7452C58.899 58.0566 58.7988 58.3573 58.6434 58.63ZM63.9 48.13C63.7065 48.4889 63.444 48.806 63.1277 49.0633C62.8114 49.3206 62.4475 49.513 62.0567 49.6294C61.666 49.7458 61.2561 49.784 60.8505 49.7418C60.445 49.6996 60.0518 49.5777 59.6934 49.3833C53.5007 46.0354 46.7589 43.8227 39.7867 42.85C32.8164 41.8632 25.7257 42.1319 18.85 43.6433C18.4516 43.7317 18.0397 43.7405 17.6379 43.6692C17.2361 43.598 16.8524 43.4482 16.5086 43.2283C16.1648 43.0084 15.8679 42.7228 15.6347 42.3879C15.4016 42.053 15.2369 41.6754 15.15 41.2767C15.0617 40.8783 15.0529 40.4664 15.1241 40.0646C15.1953 39.6628 15.3452 39.279 15.5651 38.9352C15.785 38.5915 16.0705 38.2945 16.4054 38.0614C16.7404 37.8282 17.118 37.6635 17.5167 37.5767C25.1134 35.9037 32.9488 35.6079 40.65 36.7033C48.355 37.7733 55.8054 40.2176 62.6467 43.92C64.1534 44.7367 64.7134 46.62 63.9 48.13ZM69.7267 36.2933C69.2586 37.192 68.4529 37.8681 67.4867 38.1731C66.5204 38.4781 65.4726 38.3871 64.5734 37.92C57.3621 34.1709 49.5632 31.6817 41.5134 30.56C33.4659 29.4186 25.2825 29.661 17.3167 31.2767C16.3295 31.4643 15.3081 31.2555 14.4738 30.6953C13.6395 30.1351 13.0596 29.2687 12.8596 28.2839C12.6597 27.2991 12.8558 26.2752 13.4056 25.434C13.9554 24.5928 14.8145 24.0022 15.7967 23.79C24.6127 22.0005 33.6696 21.73 42.5767 22.99C51.4865 24.2336 60.1184 26.9899 68.1 31.14C69.97 32.1133 70.7 34.42 69.7267 36.2933Z" fill="white"/>
</svg>
