<svg width="15" height="19" viewBox="0 0 15 19" fill="none" xmlns="http://www.w3.org/2000/svg">
<path d="M13.5379 8.2335C14.2982 7.03948 14.553 5.59233 14.2463 4.21042C13.9397 2.82851 13.0966 1.62504 11.9025 0.86474C10.7085 0.104444 9.26138 -0.150389 7.87947 0.1563C6.49756 0.46299 5.29408 1.30608 4.53379 2.5001L4.49272 2.55483L4.4605 2.6152C3.72313 3.79747 3.47961 5.22205 3.78238 6.58213C3.82238 6.76881 3.8734 6.95296 3.93518 7.1336L0.155673 15.7269C0.0411486 15.9869 0.0236144 16.2793 0.106252 16.5511C0.188889 16.8229 0.366222 17.056 0.606071 17.2083L1.87214 18.0144C2.11153 18.1674 2.39782 18.2294 2.67906 18.1893C2.96029 18.1492 3.21783 18.0096 3.40495 17.7959L9.59264 10.736C9.78246 10.7156 9.97091 10.6839 10.157 10.6412C11.5175 10.3402 12.7053 9.51687 13.4646 8.3486L13.5057 8.29386L13.5379 8.2335ZM13.0567 4.52385C13.2522 5.3995 13.1564 6.315 12.7839 7.13122L5.85154 2.71701C6.35316 2.13052 7.00843 1.69557 7.74368 1.46104C8.47893 1.22652 9.26503 1.20172 10.0136 1.38944C10.7622 1.57716 11.4435 1.96995 11.9811 2.52367C12.5187 3.07738 12.8912 3.77006 13.0567 4.52385ZM2.50918 17.014L1.24312 16.2078L4.63517 8.50635C5.44565 9.651 6.67261 10.4323 8.05266 10.6824L2.50918 17.014ZM4.94168 6.32484C4.74623 5.4492 4.84203 4.53369 5.21449 3.71747L5.85154 2.71701L12.7839 7.13122C12.2823 7.71772 10.99 9.15313 10.2547 9.38765C9.51948 9.62217 8.73338 9.64697 7.98481 9.45925C7.23624 9.27153 6.55486 8.87874 6.01727 8.32503C5.47969 7.77132 5.1072 7.07863 4.94168 6.32484Z" fill="#C4C4C4"/>
</svg>
