<svg width="22" height="21" viewBox="0 0 22 21" fill="none" xmlns="http://www.w3.org/2000/svg">
<path d="M0.2 8.4C0.2 8.3 0.4 8.2 0.5 8.1C0.6 8.1 0.8 8.1 0.9 8.1H20.3C20.4 8.1 20.6 8.1 20.7 8.1C20.8 8.1 21 8.3 21 8.4C21 8.5 21.2 8.7 21.2 8.8C21.2 8.9 21.2 9.1 21.2 9.2L18.9 20.2C18.9 20.4 18.7 20.6 18.6 20.8C18.4 20.9 18.2 21 18 21H3.3C3.1 21 2.8 21 2.7 20.8C2.5 20.7 2.4 20.5 2.4 20.2L0 9.2C0 9.1 0 8.9 0 8.8C0 8.7 0.1 8.5 0.2 8.4ZM2.2 10L4.1 19H17.2L19.1 10H2.2ZM2.7 1C2.7 0.7 2.8 0.5 3 0.3C3.2 0.1 3.4 0 3.7 0H17.7C18 0 18.2 0.1 18.4 0.3C18.6 0.5 18.7 0.7 18.7 1V5H16.7V2H4.7V5H2.7V1Z" fill="#CCCCCC"/>
</svg>
