<svg width="24" height="24" viewBox="0 0 24 24" fill="none" xmlns="http://www.w3.org/2000/svg">
<path d="M15 4.25013C15 3.17113 13.726 2.60013 12.92 3.31613L8.427 7.30913C8.28986 7.4313 8.11266 7.49891 7.929 7.49913H4.25C3.65326 7.49913 3.08097 7.73618 2.65901 8.15814C2.23705 8.58009 2 9.15239 2 9.74913V14.2461C2 14.8429 2.23705 15.4152 2.65901 15.8371C3.08097 16.2591 3.65326 16.4961 4.25 16.4961H7.93C8.11366 16.4963 8.29086 16.564 8.428 16.6861L12.919 20.6801C13.725 21.3961 15 20.8241 15 19.7461V4.25013ZM9.425 8.43013L13.5 4.80713V19.1891L9.425 15.5651C9.01319 15.1987 8.48121 14.9963 7.93 14.9961H4.25C4.05109 14.9961 3.86032 14.9171 3.71967 14.7765C3.57902 14.6358 3.5 14.445 3.5 14.2461V9.75013C3.5 9.55122 3.57902 9.36045 3.71967 9.2198C3.86032 9.07915 4.05109 9.00013 4.25 9.00013H7.93C8.48121 8.99999 9.01319 8.79751 9.425 8.43113V8.43013Z" fill="#B3B3B3"/>
<path d="M18.992 5.89702C19.0712 5.83845 19.1611 5.79605 19.2567 5.77224C19.3523 5.74843 19.4516 5.74368 19.549 5.75826C19.6464 5.77284 19.74 5.80646 19.8244 5.85721C19.9089 5.90796 19.9824 5.97483 20.041 6.05402C21.3162 7.77391 22.0031 9.85897 22 12C22.0028 14.1412 21.3155 16.2262 20.04 17.946C19.9192 18.0988 19.7437 18.1985 19.5506 18.2242C19.3576 18.2498 19.1621 18.1994 19.0056 18.0835C18.8491 17.9676 18.7437 17.7954 18.7119 17.6033C18.6801 17.4112 18.7242 17.2142 18.835 17.054C19.9192 15.5923 20.5031 13.8199 20.5 12C20.5031 10.1801 19.9192 8.40772 18.835 6.94602C18.7764 6.86684 18.734 6.77689 18.7102 6.68132C18.6864 6.58574 18.6817 6.48642 18.6962 6.38901C18.7108 6.2916 18.7445 6.19801 18.7952 6.1136C18.8459 6.02918 18.9128 5.95559 18.992 5.89702Z" fill="#B3B3B3"/>
<path d="M17.143 8.37002C17.2296 8.32305 17.3246 8.2936 17.4226 8.28336C17.5206 8.27312 17.6196 8.28228 17.7141 8.31033C17.8085 8.33837 17.8965 8.38475 17.973 8.44681C18.0495 8.50887 18.1131 8.5854 18.16 8.67202C18.696 9.66202 19 10.797 19 12C19.0017 13.162 18.7129 14.306 18.16 15.328C18.0653 15.5031 17.905 15.6333 17.7143 15.6901C17.5235 15.747 17.3181 15.7257 17.143 15.631C16.968 15.5363 16.8377 15.376 16.7809 15.1853C16.7241 14.9945 16.7453 14.7891 16.84 14.614C17.26 13.837 17.5 12.948 17.5 12C17.5 11.052 17.26 10.163 16.84 9.38602C16.7931 9.29936 16.7637 9.2043 16.7535 9.10627C16.7433 9.00824 16.7526 8.90917 16.7807 8.81472C16.8089 8.72027 16.8554 8.63229 16.9175 8.55582C16.9797 8.47934 17.0563 8.41587 17.143 8.36902V8.37002Z" fill="#B3B3B3"/>
</svg>
