<svg width="25" height="25" viewBox="0 0 25 25" fill="none" xmlns="http://www.w3.org/2000/svg">
<g filter="url(#filter0_d_32_816)">
<path d="M12.98 2C11.2561 2 9.60277 2.68482 8.38379 3.90381C7.1648 5.12279 6.47998 6.77609 6.47998 8.5C6.47998 10.2239 7.1648 11.8772 8.38379 13.0962C9.60277 14.3152 11.2561 15 12.98 15C14.7039 15 16.3572 14.3152 17.5762 13.0962C18.7952 11.8772 19.48 10.2239 19.48 8.5C19.48 6.77609 18.7952 5.12279 17.5762 3.90381C16.3572 2.68482 14.7039 2 12.98 2ZM4.97998 8.5C4.97998 6.37827 5.82284 4.34344 7.32313 2.84315C8.82342 1.34285 10.8582 0.5 12.98 0.5C15.1017 0.5 17.1365 1.34285 18.6368 2.84315C20.1371 4.34344 20.98 6.37827 20.98 8.5C20.98 10.6217 20.1371 12.6566 18.6368 14.1569C17.1365 15.6571 15.1017 16.5 12.98 16.5C10.8582 16.5 8.82342 15.6571 7.32313 14.1569C5.82284 12.6566 4.97998 10.6217 4.97998 8.5Z" fill="#B3B3B3"/>
<path d="M13.75 3C13.9489 3 14.1397 3.07902 14.2803 3.21967C14.421 3.36032 14.5 3.55109 14.5 3.75V7H16.75C16.9489 7 17.1397 7.07902 17.2803 7.21967C17.421 7.36032 17.5 7.55109 17.5 7.75C17.5 7.94891 17.421 8.13968 17.2803 8.28033C17.1397 8.42098 16.9489 8.5 16.75 8.5H13V3.75C13 3.55109 13.079 3.36032 13.2197 3.21967C13.3603 3.07902 13.5511 3 13.75 3Z" fill="#B3B3B3"/>
</g>
<defs>
<filter id="filter0_d_32_816" x="0.97998" y="0.5" width="24" height="24" filterUnits="userSpaceOnUse" color-interpolation-filters="sRGB">
<feFlood flood-opacity="0" result="BackgroundImageFix"/>
<feColorMatrix in="SourceAlpha" type="matrix" values="0 0 0 0 0 0 0 0 0 0 0 0 0 0 0 0 0 0 127 0" result="hardAlpha"/>
<feOffset dy="4"/>
<feGaussianBlur stdDeviation="2"/>
<feComposite in2="hardAlpha" operator="out"/>
<feColorMatrix type="matrix" values="0 0 0 0 0 0 0 0 0 0 0 0 0 0 0 0 0 0 0.25 0"/>
<feBlend mode="normal" in2="BackgroundImageFix" result="effect1_dropShadow_32_816"/>
<feBlend mode="normal" in="SourceGraphic" in2="effect1_dropShadow_32_816" result="shape"/>
</filter>
</defs>
</svg>
